<?xml version="1.0" encoding="UTF-8" standalone="no"?>
<!-- Generator: Adobe Illustrator 15.1.0, SVG Export Plug-In . SVG Version: 6.00 Build 0)  -->

<svg
   xmlns:dc="http://purl.org/dc/elements/1.1/"
   xmlns:cc="http://creativecommons.org/ns#"
   xmlns:rdf="http://www.w3.org/1999/02/22-rdf-syntax-ns#"
   xmlns:svg="http://www.w3.org/2000/svg"
   xmlns="http://www.w3.org/2000/svg"
   xmlns:sodipodi="http://sodipodi.sourceforge.net/DTD/sodipodi-0.dtd"
   xmlns:inkscape="http://www.inkscape.org/namespaces/inkscape"
   version="1.1"
   id="Layer_1"
   x="0px"
   y="0px"
   width="31.996"
   height="71.991997"
   viewBox="25 25 15.998 35.995998"
   enable-background="new 0 0 100 100"
   xml:space="preserve"
   sodipodi:docname="Thermometer.svg"
   inkscape:version="0.92.4 (5da689c313, 2019-01-14)"><metadata
   id="metadata9"><rdf:RDF><cc:Work
       rdf:about=""><dc:format>image/svg+xml</dc:format><dc:type
         rdf:resource="http://purl.org/dc/dcmitype/StillImage" /><dc:title></dc:title></cc:Work></rdf:RDF></metadata><defs
   id="defs7" /><sodipodi:namedview
   pagecolor="#ffffff"
   bordercolor="#666666"
   borderopacity="1"
   objecttolerance="10"
   gridtolerance="10"
   guidetolerance="10"
   inkscape:pageopacity="0"
   inkscape:pageshadow="2"
   inkscape:window-width="1920"
   inkscape:window-height="1017"
   id="namedview5"
   showgrid="false"
   fit-margin-top="0"
   fit-margin-left="0"
   fit-margin-right="0"
   fit-margin-bottom="0"
   inkscape:zoom="2.36"
   inkscape:cx="46.084746"
   inkscape:cy="25.14078"
   inkscape:window-x="-8"
   inkscape:window-y="-8"
   inkscape:window-maximized="1"
   inkscape:current-layer="Layer_1" />
<path
   d="m 33,60.996 c -4.418,0 -8,-3.582 -8,-8 0,-2.025 0.76,-3.869 2,-5.279 V 31 c 0,-3.313 2.686,-6 6,-6 3.312,0 5.998,2.687 5.998,6 v 16.717 c 1.242,1.41 2,3.254 2,5.279 0,4.418 -3.58,8 -7.998,8 z M 35,49.551 V 45.26 34.999 31 c 0,-1.104 -0.896,-2 -2,-2 -1.105,0 -2,0.896 -2,2 v 3.999 10.261 4.291 c -1.191,0.693 -2,1.969 -2,3.445 0,2.209 1.791,4 4,4 2.209,0 4,-1.791 4,-4 0,-1.476 -0.811,-2.752 -2,-3.445 z m -2,6.445 c -1.656,0 -3,-1.344 -3,-3 0,-1.305 0.838,-2.402 2,-2.816 V 39.935 h 2 V 50.18 c 1.162,0.414 2,1.512 2,2.816 0,1.656 -1.344,3 -3,3 z"
   id="path2"
   inkscape:connector-curvature="0"
   style="clip-rule:evenodd;fill-rule:evenodd" />
</svg>